<?xml version="1.0" encoding="UTF-8"?>
<svg id="kort" xmlns="http://www.w3.org/2000/svg" version="1.1" viewBox="0 0 466.2 509.7">
  <!-- Generator: Adobe Illustrator 29.8.2, SVG Export Plug-In . SVG Version: 2.1.1 Build 3)  -->
  <defs>
    <style>
      .st0 {
        fill: #52bab8;
      }

      .st1 {
        fill: #231f20;
      }

      .st2 {
        fill: #cb354b;
      }

      .st3 {
        fill: #f4bb1b;
      }

      .st4 {
        fill: #738538;
      }

      .st5 {
        fill: #fff;
      }

      .st6 {
        fill: #ef8823;
      }

      .st7 {
        fill: #71718a;
      }

      .st8 {
        display: none;
      }

      .st9 {
        fill: #c4e3f7;
      }
    </style>
  </defs>
  <g id="farver-byer">
    <path id="valby" class="st6" d="M85.9,232.4c3.7,5.5,1.1,13,2,19,.9,6,6,3,6.9,5.6s.2,11.4,1.2,12.3l31.9-2c2.9.4,3.8,0,7,1-.2,2.6,1.5,2.5,3.2,3.3,7.6,3.6,21,9.7,28.3,3.7,1.7.1,4.2,13.5,3.5,15.9-1.4.4-5.3.9-7,1s-3-1.7-4.9.1c-1.4,2,7.9,40.3,7.9,47.8-3.9.3-8.2-.4-12,0-1.7.5-9.8-1.4-9,1.5s4.2,8.3,5.5,10.4c4,6.5,13.7,14.6,12.5,22.5s-3.3,2.4-3.9,4.2c-.9,2.5.5,12.5-.2,13.3-9.7-3.3-19,4.5-28,8-1.8.7-3.8,2.4-6,2s-12.5-15.8-14.4-19.1-1.4-5.9-3.6-8.4c-4.3-5.1-19.1-15-21.9-19.1-2.6-3.8-4.6-13.5-7.4-18.6-6.4-11.6-22.5-13.2-22.8-28.2-.2-8.2,2.7-20.4,3.1-29.4.1-3,0-6,0-9v-17c-2.2,0-4.3.1-6.5,0s-3.7.8-3.5-1h14.5c6,0,7-6.2,7.5-11,1.3-.8,1.4-1.5,2-2,6.7-5.7,7.3-3.8,14-7v.2Z"/>
    <path id="oesterbro" class="st6" d="M240.7,58.7c-1.7-8.2,0-23,2.5-31s5.7-2.1,6.4-3-1.3-7.5,3-4.8.6,7.7,3.1,9.4,15.3,3,15.9,3.6c-1.3,5.7,1.6,8.7,3,12.9s.7,2.1,1,3v11h12.9c1.1,8.9,2.9,20,7.9,27.7s2.7,2.1,6.2,1.3c0,4.1-2.6,6.5-1.3,10.7s4.8,8.8,10.3,5.3c.5-.7-3.5-4.3-4-5-1.1-1.6-1.7-2.7-1.3-4.8,1.4-7.2,9-17.3,10.4-25.1,2.1-1.5,17.5,6.1,18.9,4.9s2.2-6.7,2-7-8.8-2.2-9.1-3.7c-.5-2.8,2.6-8.9,2.1-12.3l10,4c.6-.6-1.3-6.1,1.5-5,4,1.6,18,13.9,21,14,2.8-3.6,4.2-8.2,8-11,5.7-4.2,20.7-7.7,27.5-5.6s7.8,5.6,7.9,6.1c.4,1.8-4.8,3.5-2.1,6.9s1.9.4,2.3.6c2.9,1.4-.8,2.2-1.7,2.9-12.3,10.8-25.7,20.2-38.2,30.8-6.1,1-41-15-43.3-13.4s-1.5,4.8-2.8,6.1c0,1.2,9,4.5,10.4,4.4s2.4-2,4.7-1.8c6.3.6,16.8,7.1,23.7,7.9.6.7-7.9,7.5-9.5,7.6-4.5-.9-29.2-11.8-31.3-10.5s-2.4,5.5-2.1,5.8c1.6.5,21.2,6.2,18,9l-10-2c.5,1.4-1.3,5.5-1,6s10,1.7,7,5-4.5-1.7-6.3-1.7c-4.1,0-10,3.4-14.7,2.7-.3.2.8,6.7,1,7,.7.6,11.6-3.1,14-2v2c-.9,3.6-9.6,4.6-10,5s.7,6.7,1,7c2.2,2,1.7-4,4-1.5-1.9,6-2,16.1-4.5,21.5s-1,1-1.7-.3c-4.4-8,2.6-16.3-11.8-7.7-2.6,1-4.6,2.8-8,4s.1-1.1-.5-1-6,4-8,3.7-2.2-5-2.9-4.7c-2.2.6-4.2,3.1-5.5,4s-2.2.3-3.3,1.1c-6.2,4.6-7.7,11.2-12.6,16.9,0,0-1.2,1-2.5,0-4.6-3.4-8.3-7.8-12.5-11.1s-1.2-1-3-2l3-42.4c-1.4-5.1-3,2.1-4,3.5-1.8,2.6-4.3,4.9-6,8-2.4.5-2.3-1-2.7-2.7-1.6-6.8-2.6-13.9-4.3-20.7-.6-2.3-3-5.5-2.9-7.1,0-2.8,5.1-4.2,5-7.5,4-4.5,7.9-9.8,11-15,1.4-1,5.8-6.4,5.8-7.5-.2-2.3-8.2-4.2-2.7-10,0-1.1-1.5-.2-2-.5s-1.5-1.8-2-2h-.3Z"/>
    <path id="broenshoej" class="st2" d="M85.9,84.7c-5.2,2.3-3.9,4.2-6,7s-.6,1.4-1,2c-.7,1-2.7,1.9-4,4-2.6,4.2-2.6,6-1,11,2.2.6,2.2-1.4,3-2,1.9-1.5,2.5-1.9,4-4,3-2.4,6.4.8,9.3,0s2.9-5.2,5.4-6.7,7.6-.4,10.3-1.7,0-11.6,8.7-12.3c5.4-.4,6.6,2.5,11.3-4.2,1.8-1.1,1.9-1.6,3-3,5.8-3.3,1.6,5.1,3.1,6.9s6.6.9,6.8,1.2c.6.6-.2,11.5-.9,12.9s-8.3,6.3-8.8,8.7,1,4.5.9,6.8c0,3.6-2.9,6,.9,8.5s3.2,1.7,5,3l1,1.9c-3.7.2-2.4,2.7-3,4.1-1,2.3-1.3,4.2-2,6-2.6-.5-2,1.2-2.7,2.7-2.5,5.7-7.4,19-14.2,20.9s-2.9-2.1-5.5-2.6c-4-.8-10.8,0-14.7,1.2s-8.7,4.8-9.2,4.7c-1.4-.1-1.1-3.8-2.1-4.1s-12.6,1.8-15.4,2.1c-5.3.6-9.4,1.6-15.2.8s-25.7-7.8-26.5-9-.9-8.3-1.3-8.7c-1.6-1.7-15.3-.5-21.1-11.4-2.4-4.6-5-19.1-3.6-23.9s7.3-5.5,9.2-8.8,1.2-8.9,1.7-9.8,9.3-3.1,11.2-4.3,3.6-4.1,5.3-4.6c3.7-1.1,9.3.4,13.6-.4s11.2-4.4,11.6-4.9c1-1.5-.7-6.7.4-8.6s6-1.9,6.6-2.4,0-2,.8-2.8c5.1-4.7,10.4-4.3,16.6-1.7,6.2,2.6,5,4.2,6.4,4.6,2,.6,4.1-.8,5.3-.3,1.9.7,6.7,7.9,8.9,8.9s11.1-.3,9.5,6.6-8.8.8-11.9,1.1-6.9,4-9.6,4.7h0Z"/>
    <path class="st0" d="M387.5,187.5c2.9,2.3,6.1-1.7,9-2.5,5.2-1.6,4,.9,6,4.8s2.9.5,2,4-14.4,8.9-16.8,10.4c-4,2.6-5.3,4-8.2,7.3s-.7.6-1,1c-.7,1-3.3,1.5-3,4-.9.7-1.3.7-2,2s-1.7,1.2-.6,3c5.6,8,11.7,30.3,18.6,36,.3.3.6.7,1,1,0,1.5.6,2.5,2,3,0,.2.7.8,1,1,.7,7.5,3.9,12.8,7,19.5l-6,2,2,5.5,6-2c-2,13.8,5.9,25.5,10.8,37.7s2,9.3,3.3,12.5,1.9.6,2,.7c.7,1.2.6,2.6,2,4.5,1.6,2.1,10,9.9,10,10.9s-1,1.4-1,1.6c-1.5,1.2-3.4,1.4-5,2-3.8.5-7.5,1.4-11,3-3.3,0-4.6.9-4-3-1.5.3-2.7,1.4-4,2-6,.4-11.9,4.5-18,5-.7,2.2,1.5,2.3,2,3s.7.6,1,1c2.2,3.3,5.2,6.9,0,8-.9.6-2,.7-3,1-3.7-1-6.8,2.3-10,2s-3.2-3.1-7-3-3.1.7-4,2h-1c-5.5-1.5-3.2-11.3-7-15-.7-3.4-1.9-7-3-11-.3-3.3-.6-12.2-4-12-2.2-8.6-3.4-20.8-8.1-28.3s-6.9-9.4-9.8-14.6c-3.3-5.7-8.4-13.6-11-19s-1-5.3-3-7.4c.3-1.2,7.2-3.7,9-4.6,6.5-3,2.8-2,6.5-6s9.6-5,10.6-6.4.5-3.7,1.1-4.4,2.6-.3,3.9-1.6,1.4-4.6,2.5-6.5,4.3-3.7,4.9-5-1.5-3.7-1.4-5.6,3.7-4.5,3.9-7-1.9-6.6-1-9.8,3.5-.5,4.6-2.6.9-4.9,1.5-7l1-3v-1c.4-1.3,0-3.5,1.3-4.7l16.7-9.2c.3.5.6.7,1,1l-.3-.2Z"/>
    <path id="bispebjerg" class="st7" d="M163.8,65.7c-1.7,0-9.9,1-10.4.9-2.1-.4-1.1-4.1-1.8-4.8s-2.2,0-2.6-.3c-.9-.9,1-5.4-3.7-4.9s-3.7,12.4-10.5,12c.6-6.7,4.5-21.6,10.5-25,8.5-4.8,10.9.5,17,1,2.6.2,6.1-1.7,8.9-1.7s18,2.3,19.3,4,.4,7.1,2.2,8.3,6.1,1.5,6.4,1.5c.9,0,.8-2.1,1.6-2.5,1.1-.8,7.7.3,8,.6.8.9-2,8.1,6.4,6s.4-1.6.6-2,.8-.6,1-1c7.1,0,17.2-1.2,24,1,6.8,2.2,1.3,1.6,2,2,.6,2.3-1.9,3.8-2,5.5s5.1,3.3,4.9,5.8-3.1,5.3-3.9,6.7c-3.1,5.2-7,10.4-11,15s-6,6.5-9,9c-12.3,10.2-23.2,11.3-30,27.9-2.9,7.1-3.3,15.4-6.2,21.2s-5.1,4.7-5.8,7.7h-1c-3.9.9-8.5,2-12,4-3.6.5-9.1-8-11.4-11.1-2.5-3.3-5.8-7.7-7.7-11.2-4.6-8.2-3.6-12.8-11.8-18.6s-3.5-2-5-3c-.7-3,.9-5.9,1-8.5s-1.4-4.6-.9-6.7,5.4-6.3,6.8-8.7,1.6-.4,2-2.5c.6-3.3-.4-7.5,0-10.9-9.3-1.6-7.2-2-6-10.5.5-.4,5.5.2,6.4.9,1.7,1.2-.9,4.5,2.1,4.1s2.1-4.5,2.5-5c.8-.9,6.1.9,7.5.9s3.1-1.6,5-1.8c4.2-.6,10.5,2,9.4-4.5-.5-2.6-1.9-.5-2-.5h-1l.2-.3Z"/>
    <path id="vanloese" class="st4" d="M161.8,164.5c-7.6,1.7-12.6,9.6-18.5,14-14.3,10.6-28.3,9.6-42.9,23.9s-12.7,13.2-11.5,20c-.3.7-.7,1.3-1,2-.9,2.2-.9,5.6-1.6,6.1s-10.3,3.6-11.1,3.7c-1.9.2-3.5-1.1-5.5-.6-1.5.3-3.6,2.7-5.7,3.4-6.8,2.1-4.1-.6-5.8-4.2s-4.2-7-6.2-9.3-1.2-2.1-3-3c-4.9-2.4-5.9,0-9,0,.3-.7.7-1.3,1-2,3.8-.8,1.2-.9,2-3,1.4-3.5,3-2,0-7-.3-4-1.8-11.1-3-15s-.6-1.3-1-2c-.9-1.5-.1-1.3-2-3-1-2.5-2.5-3.8-3-5-1.9-4.7-2.2-8.6-3.8-12.7s-7.1-7.1-6.3-13.8c.4-3.2.9-3.8,4.3-3.3,6.4,1.1,16.1,6.8,23.3,7.7,4.4.6,11.9.4,16.4,0,2.4-.2,14.1-3,15-2s-1.5,4.4,1.5,4,8.9-5.4,14-6,8-.4,10,0c2.9.6,2.9,3.7,6.5,2.6,7.5-2.4,14.2-18.6,16.9-25.6s1-3.7,2-6c.9-1.4,1.2-2.7,3.3-1.9s8.3,15.2,10.9,19.1c4.1,6.3,10.3,11.8,13.8,18.7v.2Z"/>
    <path id="amager" class="st4" d="M307.6,273.3c4.4-.5,8.7-.6,12.9-2,.6,2.5,1.9,4.7,3.1,7,2.4,4.4,4.6,9,7.2,13.3s2.9,5.9,4.8,5.7c3,5.2,7,10,9.8,14.6,4.7,7.6,5.9,19.7,8.1,28.3s3,8.3,4,12,2.3,7.6,3,11-.6.6-.4,1.7c.4,2.1,3.9,13.7,3.3,14.2s-6,.3-7,2c-3.3.7-6.5,2.3-9,3-.9-2-3.2-.4-4.5,0-8.5,2.3-16.4,5-25.5,4-.9,2.2.7,3.8,1,5,.7,3,1.5,6,2,9-.2,6.6.2,13.3,0,20s-.9,6.5-1,10c-.2,6.2.9,13.1-1,19-13.8,8-28.1,20.1-41.9,28.9-4.8,1.6-10,.9-15,1-2.3-1.8-6.9-1-10-1-6,0-12-.1-18,0-2.3-1.8-6.9-1-10-1-6,0-12-.1-18,0-2.3-1.8-6.9-1-10-1-6,0-12-.1-18,0-2.3-1.8-6.9-1-10-1-5.6,0-13.3-1.8-16,4-2.8,1.3-4.9,2.3-8,3h-8c1.9-1.8,2.8-5.3,4-7s.7-.6,1-1c1.1-1.6,4-3.1,4-6l1-1c1.7-1.8,3.7-3.2,4-6,.3-.3.9-.7,1-1,1.4-.5,2-1.5,2-3,.4-.3.7-.7,1-1,1.6-1.6,3.6-3.7,4-6l1-1c1.6-1.7,3.6-3.6,4-6l1-1c1.6-1.7,3.6-3.6,4-6l1-1c1.6-1.7,3.6-3.6,4-6l1-1c1.6-1.7,3.6-3.6,4-6l1-1c1.7-1.8,3.7-3.2,4-6,.3-.3.9-.7,1-1,1.4-.5,2-1.5,2-3,1.5-.9,2.1-1.5,3-3l3-2c2.2-1,5.5-4.9,7-7l3-2c2.2-1,5.5-4.9,7-7l3-2c2.1-1,4.6-4,6-6,6.4-2.1,2.6-6.1,5-11,2.7-3.6,4.2-7.9,6-12,8.9-20.5,18.4-46.5,29-65.9,3.2-5.8,15-22.6,19.6-26.9,5-4.7,6.7,1,10.7,3.1,7.1,3.7,12.6,2.6,19.7,1.8v.2Z"/>
    <path id="vesterbro" class="st2" d="M228.7,249.3c4-.9,8.9-4.8,11.7-4.8s2.9,2.7,4.3,3.3,2.7-.7,4,0,16.1,21.5,15.9,22.9l-20.8,20.1c1.7,4.4,5.7,2.2,5.9,2.5.4.4-2.3,6.8-3,7.5-2.3,2.2-12.5,2-13,2.5s.2,3.9,0,5l12-2c1.7,1.9-9.3,18.5-11,21.5-1,.6-11.9-4.6-14.2-5.7s-3-4-5.7-1.8-1.1,4-1,4.3c.4,1.7,16.4,7.2,18.9,9.2.6,2.7-9.1,16.4-11.4,16.2-1.5-.1-12.3-5.9-12.5-7.5-.5-2.6,5.5-4.8-2.5-7.5-1-.4-1-1.5-2.1.2s-3.5,8.1-3.6,9.5c0,1.9,4,15.8,7,13.5s.7-8.7,4-8c2.2,1.7,2.7,1.8,5,3l7,5.5c-2.3,1.8-12.1,16.4-13.5,16.4s-9.8-9-14.5-6c.3,1.8-.4,10.6,0,11,.8.8,5.5-2.4,10,4s1,.2,1,1l-15,12.5c-3.7,3.7-7.2,7.9-11,11.5l-2,2-5,1c0-5.3-.6-9.9,1-15,.9-.3,2.5,0,3-1.5,1.8-6.3-13.4.7-16.5-4.4-.8-1.4-.8-9.6-.5-11.5.9-4.5,6.4-3.4,2.9-13-2.1-5.9-11.3-13.9-15-22.5-.6-3,1.5-1.9,3.5-2,4.2-.2,9.7.6,13.5,0s2.8-.3,3-2.5c-1.3-13.8-7.1-29.5-8-43-.2-2.3-.3-3.3,2-4.4,1.7-.1,5.6-.6,7-1s3-1,3.1-1.6c-.5-5.7-5.6-12.4-1.1-17.3,4.4-2,8.1-5.2,12-8,1.7.3,2.2-.8,3-2h1c7.5,4.1,5.4-1.8,8-4.5s11.1-5.9,12-6.1c3.4-.8,5.5,1.3,8,1.6,6.5.6,4.3-3.9,5.5-4.1,2.4-.3,3.4,1,7.4,0h.3Z"/>
    <path id="indreby" class="st7" d="M301.6,151.5c.9-.4,7.7-2.3,8-2,.4,2.6.5,5.8,1.1,8.2s1.7.7,1.9,1.4c.5,2.1-.5,4.7,0,6.6s4,2.9,5,3.7.7,2.3,2.4,2,4.7-4.2,6.1-4.9l.5,5c-.4.2-.7.7-1,1-2.1,1.7-2.4,2.4-2.1,5.5s3.2,1.5,3,3.8c-2.5,8.7-10.9,22.8-11.9,31.2s4.8-.2,3.9,2.9c-2.2,7.7-7,13-12,18.5s-3.5,3.5-5,5c-4.9,4.1-10.3,7.6-15,12-.3.3-.7.7-1,1-2.7,1.1-4,3.2-6,5s-.7.7-1,1c-3.8,3.4-7.4,6.4-11,10s-.7.7-1,1l-6.3-7.2c-1.5-2.3-9.5-15.6-10.7-16.3-2-1.2-4.1.6-5,0s-1-3.5-3.4-3.5-4.1,2.7-6.5,2c0-1.3.1-2.7,0-4,.9-2.3,4.1-7.5,0-7-.4-1.8,1.2-.6,2-1s1.8-7.5,2-9.5-1-2.3-1-2.4c0-.7,1.4-2.9,2-4,2.1-4.2,7.1-10.1,8-14,.3-4.6.7-3.2,3-6s3.2-4,5-7c1-1.9,4.9-4.6,5.5-6s.5-4.7.5-5c1,2.2,2.9.5,4.1-.4,3-2.6,6-9,8.5-12.5s2.6-1.9,3.4-3.1c6.2-1.3,3-1.8,3-7,1.9-.2,1.3,3.4,2.1,3.9,2.2,1.4,8.8-2.2,10.9-3.9,3.4-1.2,5.4-3,8-4h0Z"/>
    <path id="noerrebro" class="st0" d="M221.7,102.6c2.9-.5,2.4,0,3.5,1.9,3.4,5.7,4.6,27.2,8.9,29,2.2.9,1.2-1.5,1.5-2,1.7-3.1,4.2-5.4,6-8,3.2-1.9,1.1,0,1.1,1.6-.4,11.6-1.6,23.3-3.1,34.8.2,2.8,1.9,1.9,3,2.5,1.8,1,1.6.9,3,2-.2,5.6,11.6,8.6,11,14.4s-12.9,16-15.2,19.8-7.5,13.8-7.8,16.2,1.6,2,2,1.5c0,0,.4,1.8-.7,2-1.9.5-4.4-.6-6.3-1,2.4-8.4-.9-9.5-8-11l-16-6c-.6-.6-1.2-1.3-2-2s.2-1.3-.3-1.7l-11.7-9.3c-2.1-3.1-4.9-7.4-6-11,.3-3.3-.5-7.1.2-10.3s3-3.8,2.8-5.7-2.5-1.7-4-2c4.7-8.7,6.9-18.1,8-27.9,6.8-16.6,17.6-17.7,30-27.9h.1Z"/>
    <path id="frederiksberg" class="st3" d="M183.8,158.5c1.5.3,3.7-.2,4,2-5.2,4-4.6,10.5-3,16s3.9,7.9,6,11,4.8,6.5,7.6,8.8,2.7,1.9,4.3,2.2c.8.7,1.3,1.4,2,2,6,5.7,8.6,4.5,16,6,7.1,1.4,10.4,2.6,8,11s-1.5.4-1,2c5.3-.6,3.7,0,5,2-.3,1.7-2.4,10.6-2,11s3.3-1,3,1c-1,0-2.4-.5-3.1.6-1.7,2.8-1.2,11.8-1.9,15.3-4,.9-5.1-.4-7.4,0s.9,4.7-5.5,4.1c1.1-2.5-6.9-3.8-7.3-3.8-.8.1-13.2,7-13.9,7.7-3.5,3.4.4,3.6-6.7,5s-.7,0-1,0c-3,.7-1.4.9-3,2-3.9,2.8-7.6,6-12,8s-13.6,4.8-14.3,4.7c-3.7-.3-15.8-6.2-20.6-7.7-.6-1.1,1.6-3.8.5-4-3.5-.7-11.9-.3-15.5,1-8.4-.3-16.6.9-25,1-1-2.3-.5-13.5-1-14s-4,.4-5.3,0-.5-1.9-.6-2c-.4-6-.4-12.6-1-18.5s-1-2.2-1-2.4c-.2-1.9.2-4,0-6,.3-.7.7-1.3,1-2,11.7-27.1,21.8-25.7,45.6-36.7,9.9-4.6,17-16.4,27.3-20.1s3.4-.5,5-1,11-2.4,11.9-3.1.1-1.3.1-1.9h1c1.6-.4.6-1.6,4-1l-.2-.2Z"/>
  </g>
  <g id="labels-byer">
    <g>
      <path class="st1" d="M197.2,172.6v-8.1h1.1l2.6,4.1c.6.9,1.1,1.8,1.5,2.6h0c0-1.1-.1-2.1-.1-3.3v-3.4h1v8.1h-1.1l-2.6-4.1c-.6-.9-1.1-1.8-1.5-2.7h0v6.8h-1,.1Z"/>
      <path class="st1" d="M209,167l.5-.7.5.3-.5.7c.6.5.9,1.3.9,2.2,0,2.1-1.5,3.1-2.8,3.1s-1.1-.1-1.5-.4l-.5.7-.4-.4.5-.7c-.6-.5-.9-1.3-.9-2.2,0-1.9,1.3-3.1,2.9-3.1s1,.1,1.5.4h-.2ZM208.5,167.8c-.3-.2-.6-.3-1-.3-1.3,0-1.8,1.2-1.8,2.3s.1,1,.4,1.5h0l2.4-3.4h0ZM206.5,171.6c.3.2.6.3,1,.3,1.1,0,1.8-.9,1.8-2.3s0-1-.4-1.4h0l-2.4,3.3h0Z"/>
      <path class="st1" d="M211.7,168.6v-1.8h.9v1.1h0c.3-.8.9-1.3,1.6-1.3s.2,0,.3,0v1h-.4c-.7,0-1.3.6-1.4,1.4v3.6h-1v-4Z"/>
      <path class="st1" d="M215.6,168.6v-1.8h.9v1.1h0c.3-.8.9-1.3,1.6-1.3s.2,0,.3,0v1h-.4c-.7,0-1.3.6-1.4,1.4v3.6h-1v-4Z"/>
      <path class="st1" d="M220,169.8c0,1.4.9,2,2,2s1.2-.1,1.6-.3l.2.8c-.4.2-1,.4-1.9.4-1.8,0-2.9-1.2-2.9-2.9s1-3.1,2.7-3.1,2.4,1.7,2.4,2.7,0,.4,0,.5h-4.1ZM223.1,169.1c0-.7-.3-1.7-1.5-1.7s-1.5,1-1.6,1.7h3.1Z"/>
      <path class="st1" d="M225.4,172.6v-8.5h1v3.6h0c.4-.6,1-1.1,2-1.1s2.5,1.2,2.4,3c0,2.1-1.3,3.1-2.6,3.1s-1.5-.3-1.9-1.1h0v1h-1,.1ZM226.5,170.2v.4c.2.7.8,1.2,1.6,1.2s1.8-.9,1.8-2.2-.6-2.2-1.7-2.2-1.4.5-1.6,1.3v1.4h0Z"/>
      <path class="st1" d="M232.3,168.6v-1.8h.9v1.1h0c.3-.8.9-1.3,1.6-1.3s.2,0,.3,0v1h-.4c-.7,0-1.3.6-1.4,1.4v3.6h-1v-4Z"/>
      <path class="st1" d="M241.3,169.6c0,2.1-1.5,3.1-2.9,3.1s-2.8-1.2-2.8-3,1.3-3.1,2.9-3.1,2.8,1.2,2.8,3ZM236.7,169.7c0,1.3.7,2.2,1.8,2.2s1.8-.9,1.8-2.3-.5-2.2-1.7-2.2-1.8,1.2-1.8,2.3h0Z"/>
    </g>
    <g>
      <path class="st1" d="M246.3,94.1l.7-1.1c-.7-.7-1.1-1.8-1.1-3,0-2.6,1.6-4.2,3.7-4.2s1.4.2,2,.6l.7-1,.6.4-.7,1c.7.7,1,1.8,1,3,0,2.8-1.7,4.2-3.7,4.2s-1.5-.2-2.1-.6l-.8,1-.6-.5.3.2ZM251.2,87.3c-.4-.3-.9-.6-1.5-.6-1.8,0-2.7,1.6-2.7,3.3s.2,1.5.6,2.2h0l3.6-4.9ZM248.2,92.8c.4.4.9.6,1.5.6,1.7,0,2.6-1.5,2.6-3.4s-.1-1.4-.6-2.1h0l-3.5,4.9Z"/>
      <path class="st1" d="M254.5,93c.3.2.9.4,1.4.4.8,0,1.1-.4,1.1-.9s-.3-.8-1.1-1.1c-1-.4-1.5-.9-1.5-1.6s.8-1.7,2-1.7,1.1.2,1.4.4l-.3.8c-.2,0-.6-.3-1.2-.3s-1,.4-1,.8.3.7,1.1,1c1,.4,1.5.9,1.5,1.8s-.8,1.7-2.2,1.7-1.2-.2-1.6-.4l.3-.8h.1Z"/>
      <path class="st1" d="M260.7,86.6v1.7h1.5v.8h-1.5v3.1c0,.7.2,1.1.8,1.1h.6v.8c-.2,0-.5,0-.9,0s-.9-.2-1.1-.4c-.3-.3-.4-.8-.4-1.5v-3.2h-.9v-.8h.9v-1.4s1-.3,1-.3Z"/>
      <path class="st1" d="M263.9,91.4c0,1.4.9,2,2,2s1.2,0,1.6-.3l.2.8c-.4.2-1,.4-1.9.4-1.8,0-2.9-1.2-2.9-2.9s1-3.1,2.7-3.1,2.4,1.7,2.4,2.7,0,.4,0,.5h-4.1ZM267,90.6c0-.7-.3-1.7-1.5-1.7s-1.5,1-1.6,1.7h3.1Z"/>
      <path class="st1" d="M269.3,90.1v-1.8h.9v1.1h0c.3-.8.9-1.3,1.6-1.3s.2,0,.3,0v1h-.4c-.7,0-1.3.6-1.4,1.4v3.6h-1s0-4,0-4Z"/>
      <path class="st1" d="M273.3,94.1v-8.5h1v3.6h0c.4-.6,1-1.1,2-1.1s2.5,1.2,2.4,3c0,2.1-1.3,3.1-2.6,3.1s-1.5-.3-1.9-1.1h0v1h-1,.1ZM274.4,91.8v.4c.2.7.8,1.2,1.6,1.2s1.8-.9,1.8-2.2-.6-2.2-1.7-2.2-1.4.5-1.6,1.3v1.4h0Z"/>
      <path class="st1" d="M280.1,90.1v-1.8h.9v1.1h0c.3-.8.9-1.3,1.6-1.3s.2,0,.3,0v1h-.4c-.7,0-1.3.6-1.4,1.4v3.6h-1s0-4,0-4Z"/>
      <path class="st1" d="M289.2,91.1c0,2.1-1.5,3.1-2.9,3.1s-2.8-1.2-2.8-3,1.3-3.1,2.9-3.1,2.8,1.2,2.8,3ZM284.6,91.2c0,1.3.7,2.2,1.8,2.2s1.8-.9,1.8-2.3-.5-2.2-1.7-2.2-1.8,1.2-1.8,2.3h0Z"/>
    </g>
    <g>
      <path class="st1" d="M185.1,286.9l-2.6-8.1h1.1l1.3,4c.3,1.1.6,2.1.9,3h0c.2-.9.6-2,.9-3l1.4-4h1.1l-2.9,8.1h-1.2,0Z"/>
      <path class="st1" d="M190.2,284.2c0,1.4.9,2,2,2s1.2-.1,1.6-.3l.2.8c-.4.2-1,.4-1.9.4-1.8,0-2.9-1.2-2.9-2.9s1-3.1,2.7-3.1,2.4,1.7,2.4,2.7,0,.4,0,.5h-4.1ZM193.3,283.4c0-.7-.3-1.7-1.5-1.7s-1.5,1-1.6,1.7h3.1Z"/>
      <path class="st1" d="M195.5,285.8c.3.2.9.4,1.4.4.8,0,1.1-.4,1.1-.9s-.3-.8-1.1-1.1c-1-.4-1.5-.9-1.5-1.6s.8-1.7,2-1.7,1.1.2,1.4.4l-.3.8c-.2-.1-.6-.3-1.2-.3s-1,.4-1,.8.3.7,1.1,1c1,.4,1.5.9,1.5,1.8s-.8,1.7-2.2,1.7-1.2-.2-1.6-.4l.3-.8h.1Z"/>
      <path class="st1" d="M201.7,279.4v1.7h1.5v.8h-1.5v3.1c0,.7.2,1.1.8,1.1h.6v.8c-.2,0-.5.1-.9.1s-.9-.2-1.1-.4c-.3-.3-.4-.8-.4-1.5v-3.2h-.9v-.8h.9v-1.4l1-.3h0Z"/>
      <path class="st1" d="M204.9,284.2c0,1.4.9,2,2,2s1.2-.1,1.6-.3l.2.8c-.4.2-1,.4-1.9.4-1.8,0-2.9-1.2-2.9-2.9s1-3.1,2.7-3.1,2.4,1.7,2.4,2.7,0,.4,0,.5h-4.1ZM208,283.4c0-.7-.3-1.7-1.5-1.7s-1.5,1-1.6,1.7h3.1Z"/>
      <path class="st1" d="M210.3,282.9v-1.8h.9v1.1h0c.3-.8.9-1.3,1.6-1.3s.2,0,.3,0v1h-.4c-.7,0-1.3.6-1.4,1.4v3.6h-1v-4h0Z"/>
      <path class="st1" d="M214.2,286.9v-8.5h1v3.6h0c.4-.6,1-1.1,2-1.1s2.5,1.2,2.4,3c0,2.1-1.3,3.1-2.6,3.1s-1.5-.3-1.9-1.1h0v1h-1,.1ZM215.3,284.6v.4c.2.7.8,1.2,1.6,1.2s1.8-.9,1.8-2.2-.6-2.2-1.7-2.2-1.4.5-1.6,1.3v1.4h0Z"/>
      <path class="st1" d="M221.1,282.9v-1.8h.9v1.1h0c.3-.8.9-1.3,1.6-1.3s.2,0,.3,0v1h-.4c-.7,0-1.3.6-1.4,1.4v3.6h-1v-4h0Z"/>
      <path class="st1" d="M230.2,283.9c0,2.1-1.5,3.1-2.9,3.1s-2.8-1.2-2.8-3,1.3-3.1,2.9-3.1,2.8,1.2,2.8,3ZM225.6,284c0,1.3.7,2.2,1.8,2.2s1.8-.9,1.8-2.3-.5-2.2-1.7-2.2-1.8,1.2-1.8,2.3h0Z"/>
    </g>
    <g>
      <path class="st1" d="M129.1,214.5h4.4v.9h-3.3v2.7h3.1v.9h-3.1v3.7h-1v-8.1h-.1Z"/>
      <path class="st1" d="M134.6,218.6v-1.8h.9v1.1h0c.3-.8.9-1.3,1.6-1.3s.2,0,.3,0v1h-.4c-.7,0-1.3.6-1.4,1.4v3.6h-1v-4Z"/>
      <path class="st1" d="M139,219.9c0,1.4.9,2,2,2s1.2-.1,1.6-.3l.2.8c-.4.2-1,.4-1.9.4-1.8,0-2.9-1.2-2.9-2.9s1-3.1,2.7-3.1,2.4,1.7,2.4,2.7,0,.4,0,.5h-4.1ZM142.1,219.2c0-.7-.3-1.7-1.5-1.7s-1.5,1-1.6,1.7h3.1Z"/>
      <path class="st1" d="M149.4,214.1v8.5h-.9v-1h0c-.3.6-1,1.1-2,1.1s-2.5-1.2-2.5-3,1.2-3.1,2.6-3.1,1.5.4,1.8.9h0v-3.5h1.1-.1ZM148.4,219.2v-.4c-.2-.7-.7-1.2-1.5-1.2s-1.7,1-1.7,2.2.6,2.1,1.7,2.1,1.4-.5,1.5-1.3v-1.5h0Z"/>
      <path class="st1" d="M151.8,219.9c0,1.4.9,2,2,2s1.2-.1,1.6-.3l.2.8c-.4.2-1,.4-1.9.4-1.8,0-2.9-1.2-2.9-2.9s1-3.1,2.7-3.1,2.4,1.7,2.4,2.7,0,.4,0,.5h-4.1ZM154.9,219.2c0-.7-.3-1.7-1.5-1.7s-1.5,1-1.6,1.7h3.1Z"/>
      <path class="st1" d="M157.2,218.6v-1.8h.9v1.1h0c.3-.8.9-1.3,1.6-1.3s.2,0,.3,0v1h-.4c-.7,0-1.3.6-1.4,1.4v3.6h-1v-4Z"/>
      <path class="st1" d="M162.4,215.2c0,.4-.3.6-.7.6s-.6-.3-.6-.6.3-.7.7-.7.6.3.6.7ZM161.2,222.6v-5.8h1.1v5.8h-1.1Z"/>
      <path class="st1" d="M165,219.5h0c.1-.2.3-.5.5-.7l1.7-2h1.3l-2.2,2.4,2.6,3.4h-1.3l-2-2.8-.5.6v2.2h-1v-8.5h1v5.4h-.1Z"/>
      <path class="st1" d="M169.5,221.5c.3.2.9.4,1.4.4.8,0,1.1-.4,1.1-.9s-.3-.8-1.1-1.1c-1-.4-1.5-.9-1.5-1.6s.8-1.7,2-1.7,1.1.2,1.4.4l-.3.8c-.2-.1-.6-.3-1.2-.3s-1,.4-1,.8.3.7,1.1,1c1,.4,1.5.9,1.5,1.8s-.8,1.7-2.2,1.7-1.2-.2-1.6-.4l.3-.8h.1Z"/>
      <path class="st1" d="M174.3,222.6v-8.5h1v3.6h0c.4-.6,1-1.1,2-1.1s2.5,1.2,2.4,3c0,2.1-1.3,3.1-2.6,3.1s-1.5-.3-1.9-1.1h0v1h-1,.1ZM175.4,220.3v.4c.2.7.8,1.2,1.6,1.2s1.8-.9,1.8-2.2-.6-2.2-1.7-2.2-1.4.5-1.6,1.3v1.4h0Z"/>
      <path class="st1" d="M181.8,219.9c0,1.4.9,2,2,2s1.2-.1,1.6-.3l.2.8c-.4.2-1,.4-1.9.4-1.8,0-2.9-1.2-2.9-2.9s1-3.1,2.7-3.1,2.4,1.7,2.4,2.7,0,.4,0,.5h-4.1ZM184.9,219.2c0-.7-.3-1.7-1.5-1.7s-1.5,1-1.6,1.7h3.1Z"/>
      <path class="st1" d="M187.2,218.6v-1.8h.9v1.1h0c.3-.8.9-1.3,1.6-1.3s.2,0,.3,0v1h-.4c-.7,0-1.3.6-1.4,1.4v3.6h-1v-4Z"/>
      <path class="st1" d="M196,216.8v5c0,1.3-.3,2.1-.8,2.7-.6.5-1.4.7-2.1.7s-1.5-.2-1.9-.5l.3-.8c.4.2,1,.5,1.7.5,1.1,0,1.9-.6,1.9-2v-.6h0c-.3.5-.9,1-1.8,1-1.4,0-2.5-1.2-2.5-2.8s1.3-3.1,2.6-3.1,1.6.5,1.8,1h0v-.9h1l-.2-.2ZM194.9,219.1v-.5c-.2-.6-.7-1.1-1.5-1.1s-1.7.9-1.7,2.2.6,2.1,1.7,2.1,1.2-.4,1.5-1.1v-1.6h0Z"/>
    </g>
    <g>
      <path class="st1" d="M265.8,215.7v8.1h-1v-8.1h1Z"/>
      <path class="st1" d="M275.1,215.3v8.5h-.9v-1h0c-.3.6-1,1.1-2,1.1s-2.5-1.2-2.5-3,1.2-3.1,2.6-3.1,1.5.4,1.8.9h0v-3.5h1.1-.1ZM274.1,220.4v-.4c-.2-.7-.7-1.2-1.5-1.2s-1.7,1-1.7,2.2.6,2.1,1.7,2.1,1.4-.5,1.5-1.3v-1.5h0Z"/>
      <path class="st1" d="M276.9,219.8v-1.8h.9v1.1h0c.3-.8.9-1.3,1.6-1.3s.2,0,.3,0v1h-.4c-.7,0-1.3.6-1.4,1.4v3.6h-1v-4Z"/>
      <path class="st1" d="M281.3,221.1c0,1.4.9,2,2,2s1.2-.1,1.6-.3l.2.8c-.4.2-1,.4-1.9.4-1.8,0-2.9-1.2-2.9-2.9s1-3.1,2.7-3.1,2.4,1.7,2.4,2.7,0,.4,0,.5h-4.1ZM284.4,220.3c0-.7-.3-1.7-1.5-1.7s-1.5,1-1.6,1.7h3.1Z"/>
      <path class="st1" d="M291.7,223.8v-8.5h1v3.6h0c.4-.6,1-1.1,2-1.1s2.5,1.2,2.4,3c0,2.1-1.3,3.1-2.6,3.1s-1.5-.3-1.9-1.1h0v1h-1,.1ZM292.8,221.5v.4c.2.7.8,1.2,1.6,1.2s1.8-.9,1.8-2.2-.6-2.2-1.7-2.2-1.4.5-1.6,1.3v1.4h0Z"/>
      <path class="st1" d="M298.9,218l1.3,3.4c.1.4.3.8.4,1.2h0c.1-.3.2-.8.4-1.2l1.2-3.4h1.1l-1.6,4.1c-.8,2-1.3,3-2,3.6-.5.5-1,.6-1.3.7l-.3-.9c.3,0,.6-.3.9-.5s.6-.6.9-1.2v-.6l-2.1-5.3h1.2-.1Z"/>
    </g>
    <g>
      <path class="st1" d="M252.5,374l-.8,2.5h-1.1l2.7-8.1h1.3l2.8,8.1h-1.1l-.9-2.5h-2.9ZM255.1,373.2l-.8-2.3c-.2-.5-.3-1-.4-1.5h0c-.1.5-.3,1-.4,1.5l-.8,2.3h2.4,0Z"/>
      <path class="st1" d="M258.4,372.3v-1.6h.9v.9h0c.3-.6.9-1.1,1.8-1.1s1.4.5,1.6,1.2h0c.2-.3.4-.6.6-.8.3-.3.7-.4,1.3-.4s1.9.5,1.9,2.5v3.4h-1v-3.3c0-1.1-.4-1.8-1.3-1.8s-1.1.4-1.2,1v4.1h-1v-3.5c0-.9-.4-1.6-1.2-1.6s-1.1.5-1.3,1.1v4h-1v-4.2h0Z"/>
      <path class="st1" d="M271.7,376.5v-.7h-.1c-.3.5-.9.9-1.8.9s-1.8-.8-1.8-1.7c0-1.4,1.2-2.2,3.5-2.2h0c0-.6-.1-1.5-1.3-1.5s-1.1.2-1.5.4l-.2-.7c.5-.3,1.2-.5,1.9-.5,1.8,0,2.2,1.2,2.2,2.4v3.6h-1,0ZM271.5,373.6c-1.2,0-2.5.2-2.5,1.3s.5,1,1,1,1.2-.5,1.4-1v-1.3h.1Z"/>
      <path class="st1" d="M279.2,370.7v5c0,1.3-.3,2.1-.8,2.7-.6.5-1.4.7-2.1.7s-1.5-.2-1.9-.5l.3-.8c.4.2,1,.5,1.7.5,1.1,0,1.9-.6,1.9-2v-.6h0c-.3.5-.9,1-1.8,1-1.4,0-2.5-1.2-2.5-2.8s1.3-3.1,2.6-3.1,1.6.5,1.8,1h0v-.9h1l-.2-.2ZM278.1,373v-.5c-.2-.6-.7-1.1-1.5-1.1s-1.7.9-1.7,2.2.6,2.1,1.7,2.1,1.2-.4,1.5-1.1v-1.6Z"/>
      <path class="st1" d="M281.5,373.8c0,1.4.9,2,2,2s1.2-.1,1.6-.3l.2.8c-.4.2-1,.4-1.9.4-1.8,0-2.9-1.2-2.9-2.9s1-3.1,2.7-3.1,2.4,1.7,2.4,2.7,0,.4,0,.5h-4.1ZM284.6,373.1c0-.7-.3-1.7-1.5-1.7s-1.5,1-1.6,1.7h3.1Z"/>
      <path class="st1" d="M287,372.5v-1.8h.9v1.1h0c.3-.8.9-1.3,1.6-1.3s.2,0,.3,0v1h-.4c-.7,0-1.3.6-1.4,1.4v3.6h-1v-4h0Z"/>
    </g>
    <g>
      <path class="st1" d="M107.3,317.6l-2.6-8.1h1.1l1.3,4c.3,1.1.6,2.1.9,3h0c.2-.9.6-2,.9-3l1.4-4h1.1l-2.9,8.1h-1.2,0Z"/>
      <path class="st1" d="M115,317.6v-.7h-.1c-.3.5-.9.9-1.8.9s-1.8-.8-1.8-1.7c0-1.4,1.2-2.2,3.5-2.2h0c0-.6-.1-1.5-1.3-1.5s-1.1.2-1.5.4l-.2-.7c.5-.3,1.2-.5,1.9-.5,1.8,0,2.2,1.2,2.2,2.4v3.6h-1,0ZM114.8,314.6c-1.2,0-2.5.2-2.5,1.3s.5,1,1,1,1.2-.5,1.4-1v-1.3h.1Z"/>
      <path class="st1" d="M117.6,309h1.1v8.5h-1.1v-8.5Z"/>
      <path class="st1" d="M120.4,317.6v-8.5h1v3.6h0c.4-.6,1-1.1,2-1.1s2.5,1.2,2.4,3c0,2.1-1.3,3.1-2.6,3.1s-1.5-.3-1.9-1.1h0v1h-1,.1ZM121.4,315.2v.4c.2.7.8,1.2,1.6,1.2s1.8-.9,1.8-2.2-.6-2.2-1.7-2.2-1.4.5-1.6,1.3v1.4h0Z"/>
      <path class="st1" d="M127.5,311.8l1.3,3.4c.1.4.3.8.4,1.2h0c.1-.3.2-.8.4-1.2l1.2-3.4h1.1l-1.6,4.1c-.8,2-1.3,3-2,3.6-.5.5-1,.6-1.3.7l-.3-.9c.3,0,.6-.3.9-.5s.6-.6.9-1.2v-.6l-2.1-5.3h1.2-.1Z"/>
    </g>
    <g>
      <path class="st1" d="M66,185.5l-2.6-8.1h1.1l1.3,4c.3,1.1.6,2.1.9,3h0c.2-.9.6-2,.9-3l1.4-4h1.1l-2.9,8.1h-1.2Z"/>
      <path class="st1" d="M73.7,185.5v-.7h-.1c-.3.5-.9.9-1.8.9s-1.8-.8-1.8-1.7c0-1.4,1.2-2.2,3.5-2.2h0c0-.6-.1-1.5-1.3-1.5s-1.1.2-1.5.4l-.2-.7c.5-.3,1.2-.5,1.9-.5,1.8,0,2.2,1.2,2.2,2.4v3.6h-1,.1ZM73.6,182.5c-1.2,0-2.5.2-2.5,1.3s.5,1,1,1,1.2-.5,1.4-1v-1.3h.1Z"/>
      <path class="st1" d="M76.3,181.2v-1.6h.9v1h0c.3-.6,1-1.1,1.9-1.1s2.1.5,2.1,2.5v3.5h-1.1v-3.3c0-.9-.3-1.7-1.3-1.7s-1.2.5-1.4,1.1v4h-1.1v-4.4Z"/>
      <path class="st1" d="M83,177h1.1v8.5h-1.1v-8.5Z"/>
      <path class="st1" d="M89.7,180l.5-.7.5.3-.5.7c.6.5.9,1.3.9,2.2,0,2.1-1.5,3.1-2.8,3.1s-1.1-.1-1.5-.4l-.5.7-.4-.4.5-.7c-.6-.5-.9-1.3-.9-2.2,0-1.9,1.3-3.1,2.9-3.1s1,.1,1.5.4h-.2ZM89.2,180.7c-.3-.2-.6-.3-1-.3-1.3,0-1.8,1.2-1.8,2.3s.1,1,.4,1.5h0l2.4-3.4h0ZM87.2,184.5c.3.2.6.3,1,.3,1.1,0,1.8-.9,1.8-2.3s0-1-.4-1.4h0l-2.4,3.3h0Z"/>
      <path class="st1" d="M92.2,184.4c.3.2.9.4,1.4.4.8,0,1.1-.4,1.1-.9s-.3-.8-1.1-1.1c-1-.4-1.5-.9-1.5-1.6s.8-1.7,2-1.7,1.1.2,1.4.4l-.3.8c-.2-.1-.6-.3-1.2-.3s-1,.4-1,.8.3.7,1.1,1c1,.4,1.5.9,1.5,1.8s-.8,1.7-2.2,1.7-1.2-.2-1.6-.4l.3-.8h.1Z"/>
      <path class="st1" d="M97.7,182.8c0,1.4.9,2,2,2s1.2-.1,1.6-.3l.2.8c-.4.2-1,.4-1.9.4-1.8,0-2.9-1.2-2.9-2.9s1-3.1,2.7-3.1,2.4,1.7,2.4,2.7,0,.4,0,.5h-4.1ZM100.8,182c0-.7-.3-1.7-1.5-1.7s-1.5,1-1.6,1.7h3.1Z"/>
    </g>
    <g>
      <path class="st1" d="M30.6,117.4c.5,0,1.2-.2,1.9-.2,1,0,1.7.2,2.2.6.4.3.7.8.7,1.4s-.5,1.5-1.4,1.8h0c.8.2,1.7.9,1.7,2.1s-.3,1.2-.7,1.6c-.6.5-1.5.8-2.8.8h-1.6v-8h0ZM31.7,120.7h.9c1.1,0,1.8-.6,1.8-1.4s-.7-1.3-1.8-1.3-.8,0-.9,0v2.6h0ZM31.7,124.5h.9c1.1,0,2.1-.4,2.1-1.6s-.9-1.6-2.1-1.6h-.9v3.1h0Z"/>
      <path class="st1" d="M37.1,121.3v-1.8h.9v1.1h0c.3-.8.9-1.3,1.6-1.3s.2,0,.3,0v1h-.4c-.7,0-1.3.6-1.4,1.4v3.6h-1v-4h0Z"/>
      <path class="st1" d="M44.8,119.8l.5-.7.5.3-.5.7c.6.5.9,1.3.9,2.2,0,2.1-1.5,3.1-2.8,3.1s-1.1-.1-1.5-.4l-.5.7-.4-.4.5-.7c-.6-.5-.9-1.3-.9-2.2,0-1.9,1.3-3.1,2.9-3.1s1,0,1.5.4h-.2ZM44.3,120.5c-.3-.2-.6-.3-1-.3-1.3,0-1.8,1.2-1.8,2.3s.1,1,.4,1.5h0l2.4-3.4h0ZM42.3,124.3c.3.2.6.3,1,.3,1.1,0,1.8-.9,1.8-2.3s0-1-.4-1.4h0l-2.4,3.3h0Z"/>
      <path class="st1" d="M47.5,121.1v-1.6h.9v1h0c.3-.6,1-1.1,1.9-1.1s2.1.5,2.1,2.5v3.5h-1.1v-3.3c0-.9-.3-1.7-1.3-1.7s-1.2.5-1.4,1.1v4h-1.1v-4.4Z"/>
      <path class="st1" d="M54,124.3c.3.2.9.4,1.4.4.8,0,1.1-.4,1.1-.9s-.3-.8-1.1-1.1c-1-.4-1.5-.9-1.5-1.6s.8-1.7,2-1.7,1.1.2,1.4.4l-.3.8c-.2,0-.6-.3-1.2-.3s-1,.4-1,.8.3.7,1.1,1c1,.4,1.5.9,1.5,1.8s-.8,1.7-2.2,1.7-1.2-.2-1.6-.4l.3-.8h.1Z"/>
      <path class="st1" d="M58.9,116.8h1.1v3.6h0c.2-.3.4-.6.8-.7.3-.2.7-.3,1.1-.3.8,0,2,.5,2,2.5v3.5h-1.1v-3.3c0-.9-.3-1.7-1.3-1.7s-1.2.5-1.4,1.1v4h-1.1v-8.7Z"/>
      <path class="st1" d="M69.5,119.8l.5-.7.5.3-.5.7c.6.5.9,1.3.9,2.2,0,2.1-1.5,3.1-2.8,3.1s-1.1-.1-1.5-.4l-.5.7-.4-.4.5-.7c-.6-.5-.9-1.3-.9-2.2,0-1.9,1.3-3.1,2.9-3.1s1,0,1.5.4h-.2ZM69,120.5c-.3-.2-.6-.3-1-.3-1.3,0-1.8,1.2-1.8,2.3s.1,1,.4,1.5h0l2.4-3.4h0ZM67,124.3c.3.2.6.3,1,.3,1.1,0,1.8-.9,1.8-2.3s0-1-.4-1.4h0l-2.4,3.3h0Z"/>
      <path class="st1" d="M70.7,127c.5,0,.9-.2,1.2-.4.3-.3.4-.8.4-2.2v-4.9h1.1v5.3c0,1.1-.2,1.9-.7,2.4s-1.2.7-1.8.7v-.8h-.2ZM73.5,117.9c0,.3-.2.6-.7.6s-.6-.3-.6-.6.3-.7.7-.7.6.3.6.7Z"/>
      <path class="st1" d="M77.5,121.7v.8h-3v-.8h3Z"/>
      <path class="st1" d="M78.8,116.8h1.1v3.6h0c.2-.3.4-.6.8-.7.3-.2.7-.3,1.1-.3.8,0,2,.5,2,2.5v3.5h-1.1v-3.3c0-.9-.3-1.7-1.3-1.7s-1.2.5-1.4,1.1v4h-1.1v-8.7Z"/>
      <path class="st1" d="M90.3,123.8v1.6h-.9v-.9h0c-.3.5-.9,1.1-1.9,1.1s-2-.5-2-2.5v-3.4h1.1v3.2c0,1.1.3,1.8,1.3,1.8s1.2-.5,1.4-1v-4.1h1.1v4.2h-.1Z"/>
      <path class="st1" d="M91.9,124.3c.3.2.9.4,1.4.4.8,0,1.1-.4,1.1-.9s-.3-.8-1.1-1.1c-1-.4-1.5-.9-1.5-1.6s.8-1.7,2-1.7,1.1.2,1.4.4l-.3.8c-.2,0-.6-.3-1.2-.3s-1,.4-1,.8.3.7,1.1,1c1,.4,1.5.9,1.5,1.8s-.8,1.7-2.2,1.7-1.2-.2-1.6-.4l.3-.8h.1Z"/>
      <path class="st1" d="M101.6,123.8v1.6h-.9v-.9h0c-.3.5-.9,1.1-1.9,1.1s-2-.5-2-2.5v-3.4h1.1v3.2c0,1.1.3,1.8,1.3,1.8s1.2-.5,1.4-1v-4.1h1.1v4.2h-.1Z"/>
      <path class="st1" d="M103.4,121.1v-1.6h.9v.9h0c.3-.6.9-1.1,1.8-1.1s1.4.5,1.6,1.2h0c.2-.3.4-.6.6-.8.3-.3.7-.4,1.3-.4s1.9.5,1.9,2.5v3.4h-1v-3.3c0-1.1-.4-1.8-1.3-1.8s-1.1.4-1.2,1v4.1h-1v-3.5c0-.9-.4-1.6-1.2-1.6s-1.1.5-1.3,1.1v4h-1v-4.2h0Z"/>
    </g>
    <g>
      <path class="st1" d="M162.1,86.7c.5,0,1.2-.2,1.9-.2,1,0,1.7.2,2.2.6.4.3.7.8.7,1.4s-.5,1.5-1.4,1.8h0c.8.2,1.7.9,1.7,2.1s-.3,1.2-.7,1.6c-.6.5-1.5.8-2.8.8h-1.6v-8h0ZM163.2,90h.9c1.1,0,1.8-.6,1.8-1.4s-.7-1.3-1.8-1.3-.8,0-.9,0v2.6h0ZM163.2,93.9h.9c1.1,0,2.1-.4,2.1-1.6s-.9-1.6-2.1-1.6h-.9v3.1h0Z"/>
      <path class="st1" d="M169.8,87.2c0,.4-.3.6-.7.6s-.6-.3-.6-.6.3-.7.7-.7.6.3.6.7ZM168.6,94.7v-5.8h1.1v5.8h-1.1Z"/>
      <path class="st1" d="M171.3,93.6c.3.2.9.4,1.4.4.8,0,1.1-.4,1.1-.9s-.3-.8-1.1-1.1c-1-.4-1.5-.9-1.5-1.6s.8-1.7,2-1.7,1.1.2,1.4.4l-.3.8c-.2,0-.6-.3-1.2-.3s-1,.4-1,.8.3.7,1.1,1c1,.4,1.5.9,1.5,1.8s-.8,1.7-2.2,1.7-1.2-.2-1.6-.4l.3-.8h.1Z"/>
      <path class="st1" d="M176.2,90.8v-1.9h.9v1h0c.4-.7,1.1-1.1,2.1-1.1s2.5,1.2,2.5,3-1.3,3.1-2.6,3.1-1.4-.3-1.8-.9h0v3.2h-1v-6.3h-.1ZM177.2,92.3v.4c.2.7.8,1.2,1.6,1.2s1.8-.9,1.8-2.2-.6-2.2-1.7-2.2-1.4.5-1.6,1.3v1.4h0Z"/>
      <path class="st1" d="M183.6,92c0,1.4.9,2,2,2s1.2,0,1.6-.3l.2.8c-.4.2-1,.4-1.9.4-1.8,0-2.9-1.2-2.9-2.9s1-3.1,2.7-3.1,2.4,1.7,2.4,2.7,0,.4,0,.5h-4.1ZM186.7,91.2c0-.7-.3-1.7-1.5-1.7s-1.5,1-1.6,1.7h3.1Z"/>
      <path class="st1" d="M189,94.7v-8.5h1v3.6h0c.4-.6,1-1.1,2-1.1s2.5,1.2,2.4,3c0,2.1-1.3,3.1-2.6,3.1s-1.5-.3-1.9-1.1h0v1h-1,.1ZM190,92.3v.4c.2.7.8,1.2,1.6,1.2s1.8-.9,1.8-2.2-.6-2.2-1.7-2.2-1.4.5-1.6,1.3v1.4h0Z"/>
      <path class="st1" d="M194.4,96.4c.5,0,.9-.2,1.2-.4.3-.3.4-.8.4-2.2v-4.9h1.1v5.3c0,1.1-.2,1.9-.7,2.4s-1.2.7-1.8.7v-.8h-.2ZM197.1,87.2c0,.3-.2.6-.7.6s-.6-.3-.6-.6.3-.7.7-.7.6.3.6.7Z"/>
      <path class="st1" d="M199.3,92c0,1.4.9,2,2,2s1.2,0,1.6-.3l.2.8c-.4.2-1,.4-1.9.4-1.8,0-2.9-1.2-2.9-2.9s1-3.1,2.7-3.1,2.4,1.7,2.4,2.7,0,.4,0,.5h-4.1ZM202.4,91.2c0-.7-.3-1.7-1.5-1.7s-1.5,1-1.6,1.7h3.1Z"/>
      <path class="st1" d="M204.8,90.7v-1.8h.9v1.1h0c.3-.8.9-1.3,1.6-1.3s.2,0,.3,0v1h-.4c-.7,0-1.3.6-1.4,1.4v3.6h-1s0-4,0-4Z"/>
      <path class="st1" d="M213.6,88.9v5c0,1.3-.3,2.1-.8,2.7-.6.5-1.4.7-2.1.7s-1.5-.2-1.9-.5l.3-.8c.4.2,1,.5,1.7.5,1.1,0,1.9-.6,1.9-2v-.6h0c-.3.5-.9,1-1.8,1-1.4,0-2.5-1.2-2.5-2.8s1.3-3.1,2.6-3.1,1.6.5,1.8,1h0v-.9h1l-.2-.2ZM212.5,91.2v-.5c-.2-.6-.7-1.1-1.5-1.1s-1.7.9-1.7,2.2.6,2.1,1.7,2.1,1.2-.4,1.5-1.1v-1.6Z"/>
    </g>
    <g class="st8">
      <path class="st1" d="M362.7,295.6l-.8,2.5h-1.1l2.7-8.1h1.3l2.8,8.1h-1.1l-.9-2.5h-2.9ZM365.4,294.7l-.8-2.3c-.2-.5-.3-1-.4-1.5h0c0,.5-.3,1-.4,1.5l-.8,2.3h2.4Z"/>
      <path class="st1" d="M368.7,293.9v-1.6h.9v.9h0c.3-.6.9-1.1,1.8-1.1s1.4.5,1.6,1.2h0c.2-.3.4-.6.6-.8.3-.3.7-.4,1.3-.4s1.9.5,1.9,2.5v3.4h-1v-3.3c0-1.1-.4-1.8-1.3-1.8s-1.1.4-1.2,1v4.1h-1v-3.5c0-.9-.4-1.6-1.2-1.6s-1.1.5-1.3,1.1v4h-1v-4.2h0Z"/>
      <path class="st1" d="M381.9,298.1v-.7h0c-.3.5-.9.9-1.8.9s-1.8-.8-1.8-1.7c0-1.4,1.2-2.2,3.5-2.2h0c0-.6,0-1.5-1.3-1.5s-1.1.2-1.5.4l-.2-.7c.5-.3,1.2-.5,1.9-.5,1.8,0,2.2,1.2,2.2,2.4v3.6h-1,0ZM381.8,295.1c-1.2,0-2.5.2-2.5,1.3s.5,1,1,1,1.2-.5,1.4-1v-1.3h0Z"/>
      <path class="st1" d="M389.5,292.3v5c0,1.3-.3,2.1-.8,2.7-.6.5-1.4.7-2.1.7s-1.5-.2-1.9-.5l.3-.8c.4.2,1,.5,1.7.5,1.1,0,1.9-.6,1.9-2v-.6h0c-.3.5-.9,1-1.8,1-1.4,0-2.5-1.2-2.5-2.8s1.3-3.1,2.6-3.1,1.6.5,1.8,1h0v-.9h1l-.2-.2ZM388.4,294.6v-.5c-.2-.6-.7-1.1-1.5-1.1s-1.7.9-1.7,2.2.6,2.1,1.7,2.1,1.2-.4,1.5-1.1v-1.6Z"/>
      <path class="st1" d="M391.8,295.4c0,1.4.9,2,2,2s1.2-.1,1.6-.3l.2.8c-.4.2-1,.4-1.9.4-1.8,0-2.9-1.2-2.9-2.9s1-3.1,2.7-3.1,2.4,1.7,2.4,2.7,0,.4,0,.5h-4.1ZM394.9,294.6c0-.7-.3-1.7-1.5-1.7s-1.5,1-1.6,1.7h3.1Z"/>
      <path class="st1" d="M397.2,294.1v-1.8h.9v1.1h0c.3-.8.9-1.3,1.6-1.3s.2,0,.3,0v1h-.4c-.7,0-1.3.6-1.4,1.4v3.6h-1v-4h0Z"/>
      <path class="st1" d="M407.6,292.6l.5-.7.5.3-.5.7c.6.5.9,1.3.9,2.2,0,2.1-1.5,3.1-2.8,3.1s-1.1-.1-1.5-.4l-.5.7-.4-.4.5-.7c-.6-.5-.9-1.3-.9-2.2,0-1.9,1.3-3.1,2.9-3.1s1,.1,1.5.4h-.2ZM407.1,293.3c-.3-.2-.6-.3-1-.3-1.3,0-1.8,1.2-1.8,2.3s0,1,.4,1.5h0l2.4-3.4h0ZM405.1,297.1c.3.2.6.3,1,.3,1.1,0,1.8-.9,1.8-2.3s0-1-.4-1.4h0l-2.4,3.3h0Z"/>
      <path class="st1" d="M410.1,297c.3.2.9.4,1.4.4.8,0,1.1-.4,1.1-.9s-.3-.8-1.1-1.1c-1-.4-1.5-.9-1.5-1.6s.8-1.7,2-1.7,1.1.2,1.4.4l-.3.8c-.2-.1-.6-.3-1.2-.3s-1,.4-1,.8.3.7,1.1,1c1,.4,1.5.9,1.5,1.8s-.8,1.7-2.2,1.7-1.2-.2-1.6-.4l.3-.8h0Z"/>
      <path class="st1" d="M416.3,290.6v1.7h1.5v.8h-1.5v3.1c0,.7.2,1.1.8,1.1h.6v.8c-.2,0-.5.1-.9.1s-.9-.2-1.1-.4c-.3-.3-.4-.8-.4-1.5v-3.2h-.9v-.8h.9v-1.4l1-.3h0Z"/>
    </g>
  </g>
  <g id="vand">
    <path class="st9" d="M297.5,77.9c-1.6-.2-3.4,0-5,0,1.1-4.5-1.7-10.4-1-14.4s13.4-14,13.1-18-8.9.5-12.1.5l10-5.5c-2.2-10.1-13.4-3.2-14.8-12.3-.6-4,1.4-4.5,1.8-7.7s-.2-20.5,2.4-20.5h174.3l-1,403.7c.7,3.1-12.3,3.7-12.8,3.3s-.7-2.2-1.1-2.8c6.5,1.1,8.1-8,0-7-.3-1.9,1.9-.5,2.8-1.2s1.4-5.3,1.2-6.3c-.6-3.9-5.2-2.3-6.4-4.7-2-4.3,1.6-5.9,1.3-7.2-.8-4-6.1,1.4-6.5,1.4-1.2,0-2.8-4.2-3.9-5s-5.1-.9-5.6-2.5,2-3.5,2.1-5.9c.2-7.1-2-21.4-1-27.9.8-5.4,10.2-13.1,0-14.5-1.3-1.3-3-1.8-4-4s.4-2.3,0-2.9-1.7,0-1.9,0c-.4-.3-.7-.7-1-1-.3-4.1-5-7.5-6.9-10.8-3-5.3-4.5-11-6.6-17.1s0-2.3-1.5-2c0,4-4.6,7.1-3.8,10.2,1.1,4.7,5.6,7.6,6.6,12.5,1.4,7-2.6,7.4,7.2,8.2,1.6,1.2,1.8,1.6,3,3,.8,4.5,5.1,7.8,4,13-1.1,2.3-3.9,4.5-6,6s-2.5-.6-2,2h-1c-.5-3.9-1.6-7.8-3-11.5-2.8-7.6-9.4-18.9-10.8-26.2s.7-10.3-1.2-15.2c-3.3,1.6-5.4,3.9-7-.5,1-1.5,6.6-.3,5.9-2.9s-4.4-7.3-5.4-10.6c-1.5-5,1.4-5.9-3.5-9s-.9-.8-1-1c-.2-.7.4-2.3,0-2.9s-1.7,0-1.9-.1c-.4-.3-.7-.7-1-1l-18-38.9c.7-1.3,1.1-1.3,2-2s3.8,0,3-4c.3-.4.7-.7,1-1,2.9.3,3.2-2.9,4.3-3.7,3.9-2.9,13.8-8.4,18.5-11.2s4-.8,4.2-1.1c1.3-1.7-5.5-10.9-6.6-12.8l-12.4,4.9c-.4-.3-.7-.5-1-1s.3-1.8,0-2c-1.7-1.4-2,1.3-2.4,1.6-2.3,1.5-11.6,8.1-12.9,8.6-4.9,1.6-10.5.5-15.6.8-.6-6.5,10.4-3.1,15.3-6.1s1.1-3.1,2.3-3.9c5.2-3.3,10.3,1,10.3-11,.3-.4.7-.6,1-1,2.4.1,10.5-5.5,10.9-6.7.5-1.6-1.6-11.6-3.5-12.2-9.6-.3-19.3-2.7-28.9-2.2-2.2.1-17.6,2.8-18.5,3.5s-2,6.4-1.8,7c.5,1.9,5.5,1.2,4.9,4.5l-5-1c.9,4.4-2.1,10.1-1,14.3s6.3,1.9,6.9,2.8c1.3,2.1-.4,11.6-3.8,8.8s1.6-9.5-6-7l1,18c-1.2,3.7-2.4,3.7-4,6-1.6.5-6.3-1.6-7-1s.2,1.5,0,2c-7,21-14.3,23.9-30,36.9s-30.6,28.3-39.4,43-1.8,2.9-1.6,4.9c-10.6,19.4-20,45.4-29,65.9-3.6.3-4.8,7.8-6,11-1.3,3.6-1.3,5.8-2.2,8.4s-2.2,2.7-2.8,3.6c-1.4,2-3.9,5-6,6s-2.3-.4-2.9.1,0,1.7,0,1.9c-1.5,2.1-4.8,6-7,7s-2.3-.4-2.9.1,0,1.7,0,1.9c-1.5,2.1-4.8,6-7,7s-2.3-.4-2.9.1,0,1.6,0,1.9c-.9,1.5-1.5,2.1-3,3s-1.5-.3-1.9,0,.1,2.2-.1,2.9-.7.7-1,1-1.2-.4-1.8.3-2.7,4.9-2.2,5.7l-1,1c-.3.3-1.1-.4-1.8.3s-2.7,5-2.2,5.7l-1,1c-.3.3-1.2-.4-1.8.2s-2.7,5-2.2,5.7l-1,1c-.3.3-1.2-.4-1.8.2s-2.7,5-2.2,5.7l-1,1c-.3.3-1.2-.4-1.8.2s-2.7,5-2.2,5.7l-1,1c-.3.3-1.2-.4-1.8.2s-2.7,5-2.2,5.7c-.3.3-.6.7-1,1s-1.5-.3-1.9,0,.1,2.2-.1,2.9-.7.7-1,1-1.2-.4-1.8.3-2.7,4.9-2.2,5.7l-1,1c-.3.3-1.1-.4-1.8.3s-2.7,5-2.2,5.7c-.3.4-.8.7-1,1l-4.4,4.1c-5.9,8.1-10.9,16.3-11.6,26.8-8.7.3-17.3,0-25.9-.9-1.5-9.8,5.8-8.9,13-7,.7-2.1-2.7-3.3-2.8-4.5s1.7-2.4,2.1-3.7,3.1-11.4,2.7-11.8h-12c1.9-10.2-2.1-12.1-7.6-19l6-17.9c5.8-1,6-6.6,12.5-5,.4-2.1-2-3.3-1.8-5.3s2.2-2.9,2.6-4.4c1.8-6.7,1.5-12.9,4.5-20.5s3.8-10.7,6.7-4.2l1-1.5c2.2.4,4.1-1.3,6-2,7.1-.5,13.6-6.2,20.5-7s15.6,3.4,24.5,1c.5,1.5-.7,2.1-1,3-.4.2-1.8-.3-2,0-.5.7-.6,16.4,0,17,2.1,2,5-2,6-3l2-2c3.7-2.1,25.9-22.2,26-24s-.8-.8-1-1c-.3-1.1-1.6-4.4-2.2-4.8-4.2-2.4-8.3,4.6-6.8-8.2,6.6-1.7,9.2,3.8,14,6.5l17.8-23.1c.5-6.2-3.7,1.2-5.5,1.5s-5.1-2.2-6.3-2.8c-2.3-1.2-2.8-1.3-5-3s-.8-2.6-3-2l-2,8c-1.4,1.1-4.9-10.9-4.9-12.5,0-2.9,4.3-8.9,6.9-6.4s-2.7,5.3-1.6,7,14.8,8.6,16.5,7.5,7.8-11.6,9-13.8,3.2-.6,1.8-4.1-14.9-6.9-17.6-8.4-2-2.4-1.2-3.2c1-1.1,16.9,8,20,8l12-23.4c-2.7-2.5-6.1-.7-9.2-.1s-3.2,1.8-2.8-.9c3-2.8,8.3-.9,11.4-3.5s4.2-10,6.5-12.9c-1.2-1-8.8,7-8,.5l19-17c1.4-.5,1.6-3.2,1.9-3.5l1-1c.5,2.1,2.5-1.1,3-1.6,2.8-3.1,6.4-5,8-8.4.3-.3.6-.7,1-1,1.7-.4,4.6-2.1,5.7-3.3s.1-1.6.3-1.7l1-1,8.2-5c2.5-2.1,4.9-5.2,6.8-7s3.8-3.6,5-5c5.2,0,15.7-20.2,14-22l-3.9-1.4,11.9-31.6c-4.9,1.1-2.6-3.5-3-7,.3-.3.6-.8,1-1s1.8.6,2-.6c.6-2.4-.3-7,0-9.9s1-2.6,1-3v-21c0-1.6,2.1-5.8,1-8.5-2.1.5-2.3,2.4-3,4s-.7.7-1,1c-3.3,8.6-1.6,18-2,27h-8l5-26-5,3c.5-1.2-1.1-3.8-1-4,.8-1,8.5-.6,9-6s0-1.3,0-2c-2.3-1.1-13.3,2.6-14,2s-1.3-6.7-1-7c4.6.8,10.6-2.6,14.7-2.7s5.8,2.2,6.3,1.7c3.1-3.3-6.7-4.6-7-5s1.5-4.6,1-6l10,2c3.2-2.8-16.4-8.4-18-9-.3-.3,1.9-5.7,2.1-5.8,2.2-1.4,26.8,9.5,31.3,10.5,1.6,0,10-6.9,9.5-7.6-6.9-.8-17.5-7.3-23.7-7.9s-3.1,1.7-4.7,1.8-10.3-3.2-10.4-4.4c1.3-1.3,1.7-5.3,2.8-6.1,2.2-1.6,37.2,14.4,43.3,13.4,12.5-10.6,25.9-20,38.2-30.8.9-.8,4.6-1.5,1.7-2.9s-1.5.4-2.3-.6c-2.7-3.4,2.5-5.1,2.1-6.9s-7.1-5.8-7.9-6.1c-6.8-2.2-21.8,1.4-27.5,5.6s-5.2,7.4-8,11c-2.9,0-17-12.4-21-14s-.9,4.4-1.5,5l-10-4c.6,3.4-2.6,9.5-2.1,12.3s8.8,3.3,9.1,3.7-1.7,6.7-2,7c-1.3,1.2-16.7-6.4-18.9-4.9-1.4,7.8-9.1,17.9-10.4,25.1s.3,3.1,1.3,4.8l-1.5,5c-5.2-6.7-2.6-11.5-1.5-19-2.3-.4-4,2.8-6,1.6s-4.4-8-4-8.6c5.3-.7,10.5-2.6,16-2v-6c-.6-.6-9.1,1.5-10.5,2s-4.1.5-3.4,3v.4ZM409.4,211.7l-2.5-6c-3.8,3-8.4,5-12.4,7.6s-6.1,3.3-6.1,5.4c-1.1.8-1.7,2.7-4,4s-1.8-.3-2,0c-.6.8,1.1,4.7,1.5,6,1.7,4.3,7.7,17.2,10,20.9,2.3,3.7,6.2,5.4,6.9,7.1s-1.1,5.2,1.4,8.3,4.7-1.3,7.3,2.9.6,6.9-.2,11.7l10-1-4-5c-1.7-4.7,2.2-8.3,7-8l-3-4c10.7,2.2,5.7-14.3,15-15-2.1-3.5-2.7-7.3-4-11s-1-5.6-2.7-6-8.6.8-9.6,1c-2,.5-.8,8.1-6.1,8.1s-4-3.5-5.5,2.9c-.3.3-.8.7-1,1-6.8.8-.3-5.4,0-7.6s-1.5-5.6-1-6.4,9.3-2.2,11-3c.6-.8-3.3-7.5-4-9s-2-2.9-2-5h0Z"/>
    <path class="st9" d="M49.9,222.6c1.8.9,1.9,1.8,3,3l7,14.4c5.5,4.1,8.3-3.6,13.4-2.5,1.1.2-1.1,2.9-.5,4-.6.5-.7,1.2-2,2s-1.6-.3-1.9,0c-1.5,2,3.5,7.6-5.7,8.9-5.3.7-12.5.9-15.5-4.4-1.5-2.7-.8-6.1-1.6-9.4-2.3-9-14-14.1,3.7-16.2v.2Z"/>
    <path class="st9" d="M126.8,79.9c-.4.2-2.1-.3-3,.4s-.8,3.3-1,3.5c-.4.4-6.7-1.7-10.7-.3s-3.6,4.8-4.2,4.3c-3.5-4.6-.6-2.1,1-4.7s.7-3.9,1-4.2,4.9-.2,6.7-.8c4.9-1.5,8.4-6.3,15.1-4.3.3,1.6-1.2.5-2,1.7s.1,1.1,0,1.3c-1.1,1.4-1.2,1.9-3,3h.1Z"/>
    <path class="st5" d="M80.8,93.9l1,.5c.4,1.8-.3,1.6-2,1.5.4-.6.6-1.4,1-2Z"/>
  </g>
</svg>